<svg xmlns="http://www.w3.org/2000/svg" width="14" height="14" viewBox="0 0 14 14">
    <g fill="none" fill-rule="evenodd">
        <path d="M-2-2h18v18H-2z"/>
        <path fill="#40C8F4" fill-rule="nonzero" d="M12.422 9.445l-1.905-.218a1.493 1.493 0 0 0-1.23.428l-1.38 1.38a11.284 11.284 0 0 1-4.942-4.943l1.388-1.387c.322-.322.48-.772.427-1.23l-.218-1.89A1.501 1.501 0 0 0 3.07.257H1.773C.924.257.22.962.272 1.81.67 8.215 5.792 13.33 12.19 13.727c.848.053 1.553-.652 1.553-1.5V10.93a1.487 1.487 0 0 0-1.32-1.485z"/>
    </g>
</svg>
