<?xml version="1.0" encoding="UTF-8"?>
<svg width="12px" height="12px" viewBox="0 0 12 12" version="1.1" xmlns="http://www.w3.org/2000/svg" xmlns:xlink="http://www.w3.org/1999/xlink">
    <!-- Generator: sketchtool 64 (101010) - https://sketch.com -->
    <title>E0A589A7-6360-43CC-BCE0-FC869B6D63EB</title>
    <desc>Created with sketchtool.</desc>
    <g id="Space-details---Desktop" stroke="none" stroke-width="1" fill="none" fill-rule="evenodd">
        <g id="Space-details-(Dedicated---form-step-2-&amp;-expanded)" transform="translate(-358.000000, -1138.000000)">
            <g id="Group-24" transform="translate(100.000000, 983.000000)">
                <g id="Group-21" transform="translate(0.000000, 113.000000)">
                    <g id="Group-13" transform="translate(255.000000, 39.000000)">
                        <g id="person-24px">
                            <polygon id="Path" points="0 0 18 0 18 18 0 18"></polygon>
                            <path d="M9,9 C10.6575,9 12,7.6575 12,6 C12,4.3425 10.6575,3 9,3 C7.3425,3 6,4.3425 6,6 C6,7.6575 7.3425,9 9,9 Z M9,10.5 C6.9975,10.5 3,11.505 3,13.5 L3,14.25 C3,14.6625 3.3375,15 3.75,15 L14.25,15 C14.6625,15 15,14.6625 15,14.25 L15,13.5 C15,11.505 11.0025,10.5 9,10.5 Z" id="Shape" fill="#093243" fill-rule="nonzero"></path>
                        </g>
                    </g>
                </g>
            </g>
        </g>
    </g>
</svg>